<svg width="76" height="23" viewBox="0 0 76 23" fill="none" xmlns="http://www.w3.org/2000/svg">
<g opacity="0.4" clip-path="url(#clip0_8001_3)">
<path d="M7.93817 4.09026C8.29412 4.09026 8.5827 3.80168 8.5827 3.44573V2.14786C8.5827 1.7919 8.29412 1.50333 7.93817 1.50333C7.58222 1.50333 7.29364 1.7919 7.29364 2.14786V3.44573C7.29364 3.80168 7.58222 4.09026 7.93817 4.09026Z" fill="#F1F1F1"/>
<path d="M2.09091 6.45104L0.966887 5.80209C0.658586 5.62402 0.26439 5.72973 0.0864564 6.03799C-0.0915203 6.34629 0.014097 6.74048 0.322355 6.91842L1.44638 7.56738C1.75395 7.74501 2.14844 7.64047 2.32681 7.33148C2.50478 7.02318 2.39916 6.62898 2.09091 6.45104Z" fill="#F1F1F1"/>
<path d="M1.44637 13.5778L0.32235 14.2268C-0.246556 14.5552 -0.0129782 15.4296 0.645217 15.4296C0.937276 15.4296 1.01105 15.2884 2.09086 14.6942C2.39912 14.5162 2.50473 14.122 2.32676 13.8137C2.14882 13.5055 1.75471 13.3997 1.44637 13.5778Z" fill="#F1F1F1"/>
<path d="M14.4299 7.56737L15.5539 6.91841C15.8622 6.74043 15.9678 6.34628 15.7898 6.03798C15.6119 5.72973 15.2177 5.62402 14.9094 5.80209L13.7854 6.45104C13.4771 6.62902 13.3715 7.02317 13.5495 7.33147C13.7283 7.64127 14.1231 7.74457 14.4299 7.56737Z" fill="#F1F1F1"/>
<path d="M6.63545 12.2054C7.11382 9.58361 9.2253 7.5754 11.8611 7.22954C10.9147 6.11982 9.50726 5.41484 7.93813 5.41484C5.09497 5.41484 2.78192 7.72876 2.78192 10.5729C2.78192 11.9313 3.30979 13.1685 4.17084 14.0907C4.76695 13.2156 5.63702 12.5478 6.63545 12.2054Z" fill="#F1F1F1"/>
<path d="M17.1405 11.4883C16.4106 9.68401 14.6417 8.46671 12.6587 8.46671C9.9997 8.46671 7.85337 10.6101 7.82527 13.2532C5.99458 13.4541 4.60205 15.0244 4.60205 16.8667C4.60205 18.8713 6.23233 20.5022 8.23618 20.5022C18.3773 20.4916 17.8224 20.5282 17.999 20.4733C20.2518 20.2192 22 18.3079 22 15.989C22 13.3408 19.7381 11.2847 17.1405 11.4883Z" fill="#F1F1F1"/>
</g>
<g clip-path="url(#clip1_8001_3)">
<path d="M65.9992 10.658C65.9666 10.6037 65.9206 10.5587 65.8655 10.5275C65.8104 10.4963 65.7482 10.4798 65.6849 10.4798H64.3151C64.2518 10.4798 64.1896 10.4962 64.1345 10.5273C64.0795 10.5585 64.0334 10.6034 64.0008 10.6576L63.3408 11.7576C63.3066 11.8146 63.2886 11.8798 63.2886 11.9463C63.2886 12.0127 63.3066 12.0779 63.3408 12.1349L64.0008 13.2349C64.0334 13.2892 64.0794 13.3342 64.1345 13.3654C64.1895 13.3966 64.2518 13.4131 64.3151 13.4131H65.6849C65.7482 13.4131 65.8104 13.3967 65.8655 13.3656C65.9205 13.3344 65.9666 13.2895 65.9992 13.2353L66.6592 12.1353C66.6934 12.0783 66.7114 12.0131 66.7114 11.9466C66.7114 11.8802 66.6934 11.815 66.6592 11.758L65.9992 10.658Z" fill="#2194FF"/>
<path d="M73.9038 16.2401L72.4371 15.3942L73.6167 14.9608C73.7936 14.9001 73.942 14.7765 74.0338 14.6135C74.1255 14.4505 74.1541 14.2595 74.1143 14.0768C74.0889 13.9773 74.0429 13.8843 73.9794 13.8037C73.9158 13.7232 73.836 13.6568 73.7452 13.609C73.6543 13.5612 73.5545 13.533 73.4521 13.5263C73.3497 13.5195 73.247 13.5343 73.1507 13.5697L70.7849 14.4398L68.9274 13.3669L69.5467 12.3193C69.6134 12.2064 69.6486 12.0776 69.6486 11.9464C69.6486 11.8153 69.6134 11.6865 69.5467 11.5735L68.9278 10.526L70.7849 9.45312L73.1507 10.3232C73.2516 10.3604 73.3596 10.375 73.4669 10.3658C73.5741 10.3566 73.678 10.3239 73.7712 10.2701C73.8644 10.2162 73.9446 10.1425 74.0061 10.0541C74.0676 9.96581 74.1089 9.86501 74.1271 9.75892C74.1521 9.58437 74.1155 9.40656 74.0235 9.25611C73.9316 9.10566 73.79 8.99198 73.6233 8.93465L72.4382 8.49978L73.9049 7.65242C74.0684 7.56272 74.1933 7.416 74.2556 7.24019C74.318 7.06438 74.3135 6.87178 74.243 6.69908C74.2011 6.60525 74.14 6.52126 74.0636 6.45256C73.9872 6.38386 73.8972 6.33198 73.7995 6.30028C73.7018 6.26858 73.5985 6.25776 73.4963 6.26854C73.3941 6.27932 73.2953 6.31145 73.2064 6.36285L71.7031 7.23001L71.9168 5.99362C71.9515 5.81799 71.9234 5.63575 71.8374 5.47873C71.7515 5.3217 71.6131 5.19987 71.4464 5.13451C71.3458 5.09891 71.2386 5.08569 71.1323 5.0958C71.026 5.10591 70.9233 5.1391 70.8311 5.19305C70.739 5.24699 70.6598 5.3204 70.599 5.40814C70.5382 5.49587 70.4973 5.59583 70.4791 5.70101L70.0498 8.18481L68.1798 9.26465L67.5949 8.27465C67.5304 8.16488 67.4383 8.07381 67.3279 8.01042C67.2174 7.94703 67.0923 7.91349 66.965 7.91312H65.7334V5.69001L67.64 4.10161C67.7796 3.99023 67.8756 3.8333 67.9112 3.65829C67.9468 3.48327 67.9197 3.30131 67.8347 3.14425C67.7811 3.05199 67.708 2.97254 67.6205 2.91145C67.533 2.85037 67.4332 2.80912 67.3281 2.79058C67.223 2.77204 67.1151 2.77666 67.012 2.80412C66.9089 2.83157 66.813 2.8812 66.7311 2.94955L65.7334 3.78078V2.08568C65.7373 1.90717 65.6784 1.73295 65.5668 1.59352C65.4553 1.45409 65.2982 1.35834 65.1232 1.32301C65.018 1.30508 64.9101 1.31034 64.8071 1.33844C64.704 1.36653 64.6084 1.41678 64.5268 1.48568C64.4453 1.55458 64.3797 1.64045 64.3348 1.73731C64.2899 1.83417 64.2666 1.93967 64.2667 2.04645V3.78078L63.2994 2.97411C63.1648 2.85696 62.9932 2.79088 62.8148 2.78746C62.6363 2.78405 62.4624 2.8435 62.3234 2.95541C62.2422 3.02481 62.1772 3.1111 62.1328 3.20824C62.0885 3.30539 62.0659 3.41105 62.0666 3.51784C62.0673 3.62463 62.0914 3.72997 62.137 3.82649C62.1827 3.92302 62.2489 4.00841 62.3311 4.07668L64.2671 5.69001V7.91312H63.0351C62.9076 7.91312 62.7823 7.94637 62.6715 8.00958C62.5608 8.07278 62.4685 8.16377 62.4037 8.27355L61.8188 9.26355L59.9488 8.18372L59.5268 5.74135C59.4989 5.55655 59.404 5.38843 59.2603 5.26893C59.1166 5.14943 58.9341 5.08685 58.7473 5.09308C58.6448 5.10005 58.5449 5.12846 58.4541 5.17648C58.3633 5.2245 58.2836 5.29106 58.2202 5.37184C58.1568 5.45263 58.111 5.54583 58.0859 5.64543C58.0608 5.74502 58.0569 5.84878 58.0744 5.94998L58.2944 7.22892L56.8278 6.38118C56.6752 6.28841 56.4949 6.25227 56.3184 6.27908C56.1419 6.3059 55.9804 6.39396 55.8623 6.52785C55.7942 6.61001 55.7448 6.70606 55.7176 6.80929C55.6905 6.91252 55.6862 7.02043 55.705 7.1255C55.7239 7.23056 55.7654 7.33024 55.8268 7.41758C55.8882 7.50492 55.9679 7.5778 56.0603 7.63115L57.5637 8.49832L56.3779 8.93428C56.211 8.99161 56.0693 9.10532 55.9772 9.25583C55.8851 9.40634 55.8484 9.58424 55.8733 9.75892C55.8915 9.86501 55.9328 9.96581 55.9943 10.0541C56.0558 10.1425 56.136 10.2162 56.2292 10.2701C56.3224 10.3239 56.4263 10.3566 56.5336 10.3658C56.6408 10.375 56.7488 10.3604 56.8498 10.3232L59.2151 9.45312L61.0727 10.526L60.4534 11.5735C60.3867 11.6865 60.3515 11.8153 60.3515 11.9464C60.3515 12.0776 60.3867 12.2064 60.4534 12.3193L61.0723 13.3669L59.2151 14.4398L56.8498 13.5697C56.7534 13.5342 56.6507 13.5194 56.5483 13.5261C56.4459 13.5328 56.346 13.561 56.2551 13.6087C56.1642 13.6565 56.0844 13.7228 56.0208 13.8034C55.9572 13.8839 55.9112 13.977 55.8858 14.0764C55.8459 14.2592 55.8745 14.4503 55.9663 14.6133C56.058 14.7764 56.2064 14.9 56.3834 14.9608L57.5618 15.3931L56.0985 16.2365C55.9324 16.3274 55.806 16.4767 55.7439 16.6555C55.6817 16.8342 55.6881 17.0298 55.7619 17.2041C55.8049 17.2962 55.8666 17.3783 55.943 17.4453C56.0195 17.5123 56.109 17.5627 56.2059 17.5933C56.3029 17.6238 56.4051 17.6339 56.5062 17.6228C56.6072 17.6117 56.7049 17.5798 56.7929 17.5289L58.2963 16.6618L58.0818 17.9033C58.0597 18.0107 58.0615 18.1216 58.0871 18.2283C58.1126 18.3349 58.1612 18.4346 58.2294 18.5204C58.2977 18.6062 58.3839 18.676 58.4821 18.7249C58.5802 18.7737 58.6879 18.8004 58.7975 18.8031C58.9702 18.8029 59.1372 18.7417 59.2693 18.6303C59.4013 18.519 59.4897 18.3646 59.5191 18.1945L59.9485 15.7106L61.8185 14.6308L62.4033 15.6208C62.4683 15.7304 62.5608 15.8211 62.6716 15.884C62.7824 15.947 62.9076 15.98 63.0351 15.9798H64.2667V18.2029L62.36 19.7931C62.2205 19.9044 62.1246 20.0612 62.0891 20.2362C62.0536 20.4111 62.0809 20.5929 62.1661 20.7498C62.2197 20.842 62.2928 20.9215 62.3803 20.9825C62.4678 21.0436 62.5676 21.0849 62.6727 21.1034C62.7778 21.122 62.8856 21.1173 62.9888 21.0899C63.0919 21.0624 63.1878 21.0128 63.2697 20.9445L64.2667 20.1121V21.8072C64.2627 21.9857 64.3217 22.1599 64.4332 22.2994C64.5448 22.4388 64.7018 22.5346 64.8768 22.5699C64.9821 22.5878 65.09 22.5826 65.193 22.5545C65.296 22.5264 65.3916 22.4761 65.4732 22.4072C65.5548 22.3383 65.6203 22.2524 65.6653 22.1556C65.7102 22.0587 65.7334 21.9532 65.7334 21.8465V20.1121L66.7307 20.9433C66.8144 21.0132 66.9126 21.0635 67.0181 21.0906C67.1237 21.1177 67.234 21.121 67.3409 21.1001C67.4479 21.0792 67.5489 21.0348 67.6365 20.97C67.7242 20.9052 67.7962 20.8217 67.8476 20.7255C67.9255 20.5706 67.9477 20.3935 67.9106 20.2241C67.8735 20.0547 67.7793 19.9031 67.6437 19.7949L65.7334 18.2029V15.9798H66.965C67.0925 15.9798 67.2178 15.9465 67.3285 15.8833C67.4392 15.8201 67.5316 15.7291 67.5964 15.6193L68.1812 14.6293L70.0512 15.7092L70.4806 18.193C70.5099 18.3632 70.5984 18.5175 70.7304 18.6289C70.8624 18.7402 71.0295 18.8014 71.2022 18.8016C71.312 18.7983 71.4198 18.7709 71.518 18.7215C71.6162 18.6721 71.7024 18.6019 71.7705 18.5157C71.8387 18.4295 71.8872 18.3294 71.9127 18.2225C71.9381 18.1156 71.9399 18.0044 71.9179 17.8967L71.7045 16.664L73.2079 17.5311C73.2959 17.582 73.3935 17.6141 73.4946 17.6252C73.5957 17.6363 73.698 17.6263 73.795 17.5958C73.8919 17.5653 73.9815 17.5149 74.058 17.4479C74.1345 17.3809 74.1962 17.2988 74.2393 17.2066C74.3131 17.0326 74.3196 16.8374 74.2576 16.6588C74.1957 16.4802 74.0695 16.331 73.9038 16.2401ZM67.288 12.5122L66.628 13.6122C66.53 13.7748 66.3917 13.9094 66.2265 14.0029C66.0613 14.0965 65.8748 14.1459 65.685 14.1464H64.3151C64.1252 14.1459 63.9387 14.0965 63.7735 14.0029C63.6084 13.9094 63.4701 13.7748 63.372 13.6122L62.712 12.5122C62.6091 12.3414 62.5547 12.1458 62.5547 11.9464C62.5547 11.7471 62.6091 11.5514 62.712 11.3807L63.372 10.2807C63.4701 10.1181 63.6084 9.98354 63.7735 9.88997C63.9387 9.79639 64.1252 9.74696 64.3151 9.74645H65.685C65.8748 9.74696 66.0613 9.79639 66.2265 9.88997C66.3917 9.98354 66.53 10.1181 66.628 10.2807L67.288 11.3807C67.391 11.5514 67.4453 11.7471 67.4453 11.9464C67.4453 12.1458 67.391 12.3414 67.288 12.5122Z" fill="#2194FF"/>
</g>
<g clip-path="url(#clip2_8001_3)">
<path d="M30.9617 11.8234C31.0272 11.8128 31.0934 11.8079 31.1597 11.8088L42.4474 11.8088L42.2013 11.6943C41.9607 11.5804 41.7418 11.4254 41.5544 11.2364L38.3891 8.07101C37.9722 7.67305 37.9022 7.03286 38.2231 6.55416C38.5966 6.04405 39.3129 5.93329 39.8231 6.30681C39.8643 6.33701 39.9035 6.36992 39.9403 6.40533L45.6642 12.1293C46.1116 12.5761 46.112 13.301 45.6651 13.7483C45.6649 13.7486 45.6645 13.7489 45.6642 13.7492L39.9403 19.4731C39.4926 19.9196 38.7678 19.9186 38.3213 19.4709C38.2862 19.4356 38.2534 19.3981 38.2231 19.3587C37.9022 18.88 37.9722 18.2398 38.3891 17.8418L41.5487 14.6707C41.7167 14.5026 41.9098 14.3616 42.1211 14.2529L42.4646 14.0983L31.2227 14.0983C30.6379 14.1201 30.1248 13.7115 30.0149 13.1367C29.9137 12.5126 30.3376 11.9247 30.9617 11.8234Z" fill="#2194FF"/>
</g>
<defs>
<clipPath id="clip0_8001_3">
<rect width="22" height="22.0079" fill="white"/>
</clipPath>
<clipPath id="clip1_8001_3">
<rect width="22" height="22" fill="white" transform="translate(54 0.946442)"/>
</clipPath>
<clipPath id="clip2_8001_3">
<rect width="16" height="16" fill="white" transform="matrix(-1 8.74228e-08 8.74228e-08 1 46 4.94644)"/>
</clipPath>
</defs>
</svg>
